<?xml version="1.0" standalone="no"?>
<!DOCTYPE svg PUBLIC "-//W3C//DTD SVG 20010904//EN"
 "http://www.w3.org/TR/2001/REC-SVG-20010904/DTD/svg10.dtd">
<svg version="1.0" xmlns="http://www.w3.org/2000/svg"
 width="985.000000pt" height="1280.000000pt" viewBox="0 0 985.000000 1280.000000"
 preserveAspectRatio="xMidYMid meet">
<metadata>
Created by potrace 1.15, written by Peter Selinger 2001-2017
</metadata>
<g transform="translate(0.000000,1280.000000) scale(0.100000,-0.100000)"
fill="#000000" stroke="none">
<path d="M3756 12513 c-8 -139 11 -356 43 -483 119 -475 364 -885 831 -1391
57 -63 93 -105 80 -93 -256 212 -462 413 -594 577 -145 180 -294 428 -358 594
-19 50 -42 50 -52 1 -17 -87 0 -317 34 -450 57 -222 192 -482 359 -693 131
-164 338 -364 511 -493 134 -99 109 -88 -93 41 -401 255 -714 532 -744 657
-15 64 -48 60 -58 -8 -15 -112 42 -279 142 -420 48 -67 150 -187 253 -296 133
-141 498 -455 644 -554 69 -47 30 -33 -95 34 -129 69 -294 179 -435 290 -59
46 -116 84 -126 84 -15 0 -18 -8 -18 -51 0 -111 59 -254 157 -381 130 -170
424 -416 713 -598 47 -29 90 -58 95 -63 30 -29 -186 98 -355 208 -55 36 -105
65 -111 65 -5 0 -18 6 -29 13 -49 29 -40 -45 16 -140 68 -117 287 -300 499
-418 158 -88 263 -143 283 -149 22 -7 31 -26 12 -26 -5 0 -10 -7 -10 -15 0
-10 -17 -2 -52 25 -58 44 -165 98 -243 123 -78 25 -202 43 -520 77 -157 16
-489 73 -580 99 -16 5 -57 14 -90 21 -187 40 -768 197 -1625 440 -135 39 -384
108 -555 155 -373 103 -515 149 -700 227 -77 33 -149 61 -160 63 -11 2 -27 5
-35 6 -18 5 -26 -45 -12 -75 6 -12 16 -36 23 -54 15 -41 81 -144 123 -193 52
-61 151 -138 241 -189 103 -58 619 -261 1140 -448 90 -33 713 -240 965 -321
l65 -21 -65 6 c-36 3 -90 9 -120 14 -30 6 -100 17 -155 26 -225 36 -591 114
-770 164 -508 143 -731 219 -1114 379 -197 83 -256 100 -263 79 -16 -46 117
-265 210 -349 73 -65 215 -160 311 -209 173 -86 540 -237 802 -328 235 -83
676 -212 722 -212 9 0 17 -5 17 -10 0 -6 -10 -8 -22 -5 -13 3 -81 14 -151 25
-361 57 -794 158 -1182 276 -116 35 -161 42 -176 26 -12 -12 9 -100 37 -155
104 -209 309 -342 728 -471 308 -96 772 -197 1059 -231 32 -4 55 -10 52 -13
-3 -3 -70 -9 -148 -13 -171 -8 -496 5 -662 27 -66 8 -158 17 -205 19 -47 2
-94 6 -105 7 -14 2 -21 -3 -23 -18 -2 -18 12 -31 70 -67 287 -179 758 -295
1513 -373 l70 -7 -65 -13 c-79 -16 -209 -32 -354 -44 -60 -5 -112 -14 -115
-19 -4 -5 -24 -11 -46 -13 -58 -5 -56 -27 7 -71 130 -89 305 -148 498 -169
117 -12 422 -5 529 13 142 23 277 48 294 54 9 4 17 4 17 1 0 -12 -122 -62
-245 -100 -66 -21 -133 -44 -150 -52 -16 -7 -43 -17 -60 -22 -19 -5 -31 -16
-33 -30 -3 -17 5 -24 50 -37 91 -29 217 -30 347 -6 210 41 420 121 779 297
117 58 232 112 254 120 59 20 174 18 223 -6 l40 -18 -60 5 c-72 6 -164 -15
-239 -55 -62 -33 -212 -180 -287 -282 -185 -252 -303 -547 -366 -920 -26 -149
-25 -568 0 -725 57 -350 171 -669 345 -963 111 -186 182 -282 422 -562 361
-423 536 -710 600 -987 l20 -84 -33 -87 c-88 -234 -279 -408 -503 -457 -141
-32 -247 -4 -340 89 -50 51 -63 71 -77 122 -23 83 -4 168 50 216 35 32 113 60
148 54 55 -11 61 -27 34 -92 -22 -56 -22 -57 -3 -71 12 -9 32 -12 54 -9 61 10
82 61 57 140 -36 112 -89 154 -180 142 -64 -9 -137 -46 -172 -87 -53 -64 -78
-136 -78 -229 -1 -292 227 -470 519 -405 148 33 248 91 386 223 48 46 106 108
129 138 23 30 43 53 44 52 2 -2 -3 -30 -10 -63 -50 -241 -140 -421 -291 -584
-189 -204 -507 -370 -710 -371 -84 0 -143 20 -254 86 -154 92 -194 107 -281
108 -89 1 -109 -11 -140 -82 -25 -58 -24 -106 5 -167 113 -243 576 -276 984
-71 323 162 580 463 706 825 63 180 95 354 96 521 1 89 2 94 17 75 27 -35 99
-196 136 -305 35 -105 51 -163 83 -315 57 -269 121 -502 174 -635 100 -253
289 -492 495 -626 105 -68 143 -86 245 -119 73 -23 102 -27 210 -27 106 0 137
4 203 25 93 30 148 65 173 112 16 30 16 37 4 62 -7 15 -14 31 -14 35 -3 26
-27 28 -107 11 -112 -24 -345 -24 -441 0 -304 75 -561 287 -698 572 -78 163
-121 322 -166 609 -49 315 -76 412 -191 674 -3 7 25 -10 63 -38 288 -215 607
-273 923 -166 157 53 309 172 407 319 222 330 256 643 110 985 -87 202 -209
317 -378 357 -225 53 -441 -34 -532 -215 -41 -82 -51 -147 -37 -225 23 -126
94 -224 194 -271 67 -31 109 -30 176 4 90 45 98 84 13 64 -26 -5 -49 -9 -50
-7 -2 2 13 13 35 24 l38 20 -50 -6 c-68 -7 -140 24 -198 86 -52 55 -63 98 -47
176 29 140 140 215 315 215 116 0 238 -41 305 -102 65 -60 137 -172 162 -253
35 -114 40 -148 41 -265 0 -138 -13 -201 -66 -305 -49 -99 -106 -176 -191
-260 -93 -92 -176 -144 -291 -182 -74 -25 -93 -27 -240 -27 -124 -1 -175 3
-225 17 -100 28 -236 97 -327 165 -78 59 -199 181 -245 245 -20 29 -21 30 -2
24 162 -52 190 -55 288 -32 100 23 152 50 211 108 43 44 57 67 74 122 51 164
3 298 -131 366 -55 28 -129 30 -166 3 -38 -28 -74 -108 -78 -172 -3 -48 0 -57
30 -89 28 -31 39 -36 78 -37 77 -2 90 28 62 138 -7 29 -7 29 30 23 21 -3 45
-12 53 -19 45 -37 58 -156 22 -202 -28 -35 -97 -75 -161 -92 -221 -59 -422 66
-728 451 -243 306 -348 505 -386 734 -41 250 6 507 142 781 124 250 355 495
684 725 97 68 313 210 404 266 200 122 326 294 405 554 31 103 65 278 76 397
6 61 10 70 38 90 98 68 239 189 369 317 l147 144 73 -12 c239 -39 615 -153
1044 -317 122 -46 227 -84 233 -84 6 0 11 10 10 23 0 21 -81 81 -258 191 -135
84 -494 252 -811 381 -91 37 -170 72 -176 78 -14 15 -58 140 -84 242 -31 118
-62 178 -127 246 -85 90 -189 137 -361 165 -202 32 -391 -26 -583 -182 -44
-35 -81 -64 -82 -64 -1 0 -3 30 -3 68 -2 88 -17 142 -57 194 -33 43 -53 53
-161 83 -200 55 -173 248 69 504 222 234 260 312 253 511 -3 103 -5 110 -46
194 -100 201 -339 431 -848 813 -334 251 -574 436 -689 531 -164 135 -529 498
-665 662 -287 346 -528 716 -671 1029 -42 92 -63 127 -77 129 -18 3 -20 -6
-26 -105z m1692 -4219 c188 -75 266 -179 278 -374 12 -196 -27 -366 -102 -448
-23 -26 -45 -44 -49 -40 -18 18 -35 187 -35 358 -1 266 -28 370 -128 482 -24
26 -41 48 -37 48 4 0 37 -12 73 -26z m2252 -654 c23 -23 17 -48 -15 -56 -37
-9 -65 4 -65 31 0 43 47 58 80 25z m-1304 -1117 c-10 -74 -35 -141 -55 -148
-20 -6 -71 13 -71 26 0 10 121 169 128 169 3 0 2 -21 -2 -47z m548 -183 c-29
-132 -135 -330 -205 -382 -39 -29 -104 -52 -119 -43 -25 16 -8 58 48 118 31
34 67 77 80 95 40 56 138 253 173 347 l34 90 3 -75 c2 -44 -4 -106 -14 -150z
m-301 113 c-3 -27 -12 -68 -21 -93 -19 -56 -78 -147 -102 -160 -21 -11 -73
-13 -83 -4 -3 3 10 27 29 53 69 91 164 236 164 249 0 7 4 11 9 8 5 -3 6 -27 4
-53z"/>
</g>
</svg>
